# xmcd
#
# Track frame offsets:
#	150
#	12775
#	31605
#	47875
#	62620
#	78430
#	93875
#	111020
#	126065
#	138945
#	148780
#	168840
#	182630
#	197010
#
# Disc length: 2791 seconds
#
# Revision: 0
# Processed by: cddbd v1.4PL0 Copyright (c) Steve Scherf et al.
# Submitted via: audiograbber 1.80.04
#
DISCID=ad0ae50e
DTITLE=Sérgio Reis - Grandes Sucessos de
DYEAR=1900
DGENRE=Sertanejo
TTITLE0=Chalana
TTITLE1=Mágoa de Boiadeiro
TTITLE2=Chico Mineiro
TTITLE3=Panela Velha
TTITLE4=Boiadeiro Errante
TTITLE5=Tristeza do Jeca
TTITLE6=Filho Adotivo
TTITLE7=O Menino da Porteira
TTITLE8=Saudade da minha Terra
TTITLE9=Adeus Mariana
TTITLE10=Pinga ni mim
TTITLE11=Rio de lágrimas
TTITLE12=Casamento é uma Gaiola
TTITLE13=Cavalo Preto
EXTD=
EXTT0=
EXTT1=
EXTT2=
EXTT3=
EXTT4=
EXTT5=
EXTT6=
EXTT7=
EXTT8=
EXTT9=
EXTT10=
EXTT11=
EXTT12=
EXTT13=
PLAYORDER=
